<svg xmlns="http://www.w3.org/2000/svg" width="200" height="73" viewBox="0 0 200 73" version="1.1"><path d="M 29.750 26.433 C 22.948 32.398, 22 33.643, 22 36.614 C 22 40.648, 22.573 40.784, 25.945 37.551 L 28.500 35.102 28.376 39.301 C 28.278 42.641, 27.511 44.307, 24.626 47.445 C 22.632 49.615, 21 52.428, 21 53.695 C 21 56.661, 22.080 56.609, 25 53.500 C 28.148 50.150, 28.676 50.340, 28.173 54.642 L 27.748 58.284 32.320 54.793 C 41.955 47.436, 44 45.202, 44 42.031 C 44 38.438, 43.697 38.367, 39.904 41.068 L 37 43.136 37 39.856 C 37 37.365, 37.980 35.577, 41.074 32.425 C 44.438 28.997, 45.091 27.704, 44.824 24.999 L 44.500 21.724 39 26.571 C 35.975 29.236, 34.545 30.248, 35.822 28.818 C 37.476 26.966, 38.051 25.273, 37.822 22.928 L 37.500 19.637 29.750 26.433 M 61.200 29.200 C 59.011 31.389, 59.830 34.787, 63 36.659 C 66.830 38.922, 66.807 40, 62.927 40 C 60.540 40, 59.927 40.391, 60.185 41.750 C 60.653 44.215, 65.177 44.487, 67.978 42.219 C 70.908 39.846, 70.186 35.861, 66.524 34.193 C 63.289 32.719, 63.276 31, 66.500 31 C 68.056 31, 69 30.433, 69 29.500 C 69 27.648, 62.983 27.417, 61.200 29.200 M 74.229 28.669 C 73.530 28.951, 72.267 30.518, 71.422 32.152 C 70.196 34.522, 70.108 35.796, 70.986 38.458 C 72.664 43.542, 80.969 46.114, 81.799 41.806 C 82.038 40.563, 81.274 40.054, 78.810 39.818 C 76.018 39.550, 75.450 39.060, 75.178 36.690 C 74.778 33.205, 76.501 31, 79.622 31 C 81.069 31, 82 30.413, 82 29.500 C 82 28.010, 77.156 27.492, 74.229 28.669 M 83.208 35.739 C 83.451 42.177, 83.794 43.535, 85.250 43.812 C 86.618 44.074, 87 43.457, 87 40.990 C 87 37.276, 89.135 37.335, 90.018 41.074 C 90.382 42.619, 91.300 43.500, 92.545 43.500 C 93.789 43.500, 94.359 42.954, 94.112 42 C 93.899 41.175, 93.740 38.250, 93.760 35.500 C 93.780 32.750, 93.337 29.938, 92.776 29.250 C 92.214 28.563, 89.766 28, 87.335 28 L 82.916 28 83.208 35.739 M 96 34.443 C 96 39.968, 96.317 41.109, 98.223 42.443 C 103.806 46.354, 108 42.733, 108 34 C 108 28.718, 107.767 28, 106.050 28 C 104.378 28, 104.057 28.818, 103.800 33.740 C 103.563 38.268, 103.130 39.551, 101.750 39.814 C 100.239 40.101, 100 39.318, 100 34.073 C 100 28.667, 99.780 28, 98 28 C 96.207 28, 96 28.667, 96 34.443 M 110.709 28.624 C 110.319 29.014, 110 32.633, 110 36.667 C 110 42.336, 110.322 44, 111.421 44 C 112.207 44, 113.167 42.549, 113.571 40.750 L 114.300 37.500 115.251 40.304 C 116.521 44.045, 118.996 43.436, 120.546 39 L 121.768 35.500 122.134 39.500 C 122.384 42.226, 122.978 43.500, 124 43.500 C 125.792 43.500, 126.461 38.558, 125.519 32.276 C 124.965 28.586, 124.544 28, 122.439 28 C 121.097 28, 120 28.421, 120 28.935 C 120 29.449, 119.498 31.137, 118.884 32.685 L 117.768 35.500 116.550 32 C 115.388 28.661, 112.399 26.934, 110.709 28.624 M 87 32.500 C 87 33.325, 87.675 34, 88.500 34 C 89.325 34, 90 33.325, 90 32.500 C 90 31.675, 89.325 31, 88.500 31 C 87.675 31, 87 31.675, 87 32.500 M 131.791 47.560 C 130.165 51.128, 132.122 52.827, 137.797 52.775 C 140.384 52.752, 143.063 52.288, 143.750 51.744 C 144.585 51.084, 145 51.105, 145 51.809 C 145 53.324, 150.021 52.577, 151.080 50.905 C 151.796 49.773, 151.972 49.841, 151.985 51.250 C 151.993 52.212, 152.450 53, 153 53 C 153.550 53, 154 52.546, 154 51.992 C 154 51.370, 154.716 51.430, 155.868 52.149 C 158.874 54.027, 161 52.529, 161 48.531 C 161 46.589, 160.550 45, 160 45 C 159.450 45, 159 46.098, 159 47.441 C 159 48.784, 158.550 50.160, 158 50.500 C 157.420 50.859, 157 49.883, 157 48.176 C 157 45.530, 156.694 45.249, 153.951 45.387 C 152.274 45.472, 150.481 46.207, 149.966 47.020 C 149.178 48.267, 149.028 48.225, 149.015 46.750 C 149.007 45.788, 148.325 45, 147.500 45 C 146.675 45, 146 45.745, 146 46.655 C 146 48.145, 145.826 48.158, 144.250 46.785 C 143.221 45.888, 140.516 45.243, 137.688 45.219 C 133.569 45.185, 132.719 45.522, 131.791 47.560 M 162 49 C 162 51.200, 162.450 53, 163 53 C 163.550 53, 164.014 52.212, 164.030 51.250 C 164.059 49.583, 164.109 49.583, 165.080 51.250 C 166.779 54.166, 168 53.225, 168 49 C 168 46.800, 167.550 45, 167 45 C 166.450 45, 166 45.540, 166 46.200 C 166 47.133, 165.733 47.133, 164.800 46.200 C 162.733 44.133, 162 44.865, 162 49 M 169 48.942 C 169 52.593, 169.084 52.675, 172.947 52.827 C 175.117 52.912, 177.199 52.488, 177.572 51.884 C 178.045 51.118, 178.492 51.177, 179.049 52.079 C 179.685 53.108, 180.151 53.120, 181.335 52.137 C 182.153 51.458, 183.068 51.301, 183.369 51.788 C 184.307 53.306, 190.831 53.026, 192.461 51.397 C 194.412 49.445, 194.396 48.539, 192.375 46.518 C 190.064 44.207, 186.706 44.985, 185.979 48 L 185.376 50.500 184.669 47.750 C 183.778 44.287, 181.245 44.178, 180.394 47.566 L 179.750 50.132 178.597 47.816 C 177.686 45.987, 176.556 45.470, 173.222 45.356 L 169 45.211 169 48.942 M 134.667 47.667 C 133.290 49.043, 134.073 51, 136 51 C 137.333 51, 138 50.333, 138 49 C 138 47.073, 136.043 46.290, 134.667 47.667 M 140.531 48.293 C 140.103 49.279, 140.034 50.367, 140.376 50.710 C 141.392 51.725, 142.211 50.299, 141.743 48.328 C 141.329 46.581, 141.275 46.580, 140.531 48.293 M 175 49 C 175 50.867, 175.267 51.133, 176.200 50.200 C 177.133 49.267, 177.133 48.733, 176.200 47.800 C 175.267 46.867, 175 47.133, 175 49 M 189 49 C 189 50.867, 189.267 51.133, 190.200 50.200 C 191.133 49.267, 191.133 48.733, 190.200 47.800 C 189.267 46.867, 189 47.133, 189 49" stroke="none" fill="#343434" fill-rule="evenodd"/><path d="M 8.306 6.413 C 5.924 8.462, 5.500 9.586, 5.500 13.848 C 5.500 17.882, 6.015 19.422, 8.121 21.684 C 12.925 26.846, 14.286 29.855, 14.286 35.316 C 14.286 40.333, 12.525 45.298, 9.732 48.155 C 4.352 53.660, 3.580 59.158, 7.527 63.850 C 11.961 69.119, 19.943 68.902, 25.103 63.374 C 31.261 56.776, 41.565 55.153, 47.527 59.843 C 51.283 62.797, 54.597 62.557, 58.077 59.077 C 61.908 55.246, 62.070 49.840, 58.500 45 C 55.015 40.276, 55.003 32.135, 58.474 26.500 C 65.119 15.712, 56.819 5.008, 47.148 11.895 C 40.534 16.604, 33.805 15.320, 24.172 7.509 C 18.683 3.058, 12.688 2.644, 8.306 6.413 M 31.500 19.718 C 28.045 20.557, 22.845 25.128, 21.394 28.600 C 19.355 33.480, 19.664 39.629, 22.173 44.094 C 24.212 47.721, 24.243 48.075, 22.673 49.809 C 20.948 51.715, 20.362 56, 21.826 56 C 22.280 56, 23.708 54.875, 25 53.500 C 28.154 50.143, 28.676 50.339, 28.168 54.688 L 27.737 58.376 31.619 55.329 C 33.753 53.653, 37.142 51.982, 39.149 51.615 C 43.206 50.873, 47.412 47.967, 49.163 44.696 C 56.159 31.623, 45.359 16.351, 31.500 19.718 M 127 35 L 127 43 133.883 43 C 139.926 43, 140.831 42.756, 141.290 41 C 141.577 39.900, 142.572 39, 143.500 39 C 144.428 39, 145.423 39.900, 145.710 41 C 146.258 43.095, 150 43.844, 150 41.858 C 150 41.230, 149.081 37.630, 147.958 33.858 C 146.190 27.923, 145.601 27, 143.582 27 C 141.567 27, 140.993 27.889, 139.382 33.514 C 138.077 38.074, 137.115 39.874, 136.177 39.514 C 135.440 39.231, 133.973 39, 132.918 39 C 131.240 39, 131 38.248, 131 33 C 131 27.667, 130.778 27, 129 27 C 127.167 27, 127 27.667, 127 35 M 150.500 28 C 149.663 29.354, 150.792 31, 152.559 31 C 153.654 31, 154 32.443, 154 37 C 154 42.333, 154.222 43, 156 43 C 157.778 43, 158 42.333, 158 37 C 158 31.667, 158.222 31, 160 31 C 161.333 31, 162 30.333, 162 29 C 162 27.245, 161.333 27, 156.559 27 C 153.566 27, 150.840 27.450, 150.500 28 M 164.154 34.414 C 161.550 43.376, 161.562 43, 163.883 43 C 164.926 43, 166 42.107, 166.290 41 C 166.577 39.900, 167.572 39, 168.500 39 C 169.428 39, 170.423 39.900, 170.710 41 C 171.299 43.250, 175 43.773, 175 41.605 C 175 40.838, 174.082 37.238, 172.960 33.605 C 171.218 27.965, 170.583 27, 168.614 27 C 166.607 27, 166.029 27.962, 164.154 34.414 M 176.991 29.750 C 176.987 31.262, 176.699 34.862, 176.352 37.750 C 175.764 42.644, 175.867 43, 177.861 43 C 179.694 43, 180.015 42.393, 180.105 38.750 L 180.210 34.500 181.444 38.500 C 183.158 44.053, 185.422 44.170, 187.320 38.804 L 188.842 34.500 188.921 38.750 C 188.989 42.401, 189.302 43, 191.139 43 C 193.133 43, 193.236 42.644, 192.648 37.750 C 192.301 34.862, 192.013 31.262, 192.009 29.750 C 192.002 27.526, 191.547 27, 189.630 27 C 187.663 27, 187.038 27.791, 185.957 31.654 L 184.654 36.308 183.297 31.654 C 182.155 27.738, 181.548 27, 179.470 27 C 177.444 27, 176.998 27.495, 176.991 29.750 M 143.079 34.583 C 143.127 35.748, 143.364 35.985, 143.683 35.188 C 143.972 34.466, 143.936 33.603, 143.604 33.271 C 143.272 32.939, 143.036 33.529, 143.079 34.583 M 168 34.500 C 168 35.325, 168.436 36, 168.969 36 C 169.501 36, 169.678 35.325, 169.362 34.500 C 169.045 33.675, 168.609 33, 168.393 33 C 168.177 33, 168 33.675, 168 34.500" stroke="none" fill="#fb390d" fill-rule="evenodd"/></svg>