<svg xmlns="http://www.w3.org/2000/svg" width="126" height="126" viewBox="0 0 126 126" version="1.1"><path d="M 55.752 45.308 L 41.004 58.500 41.002 64.323 C 41.001 68.793, 41.324 70.071, 42.395 69.823 C 43.162 69.645, 50.099 63.875, 57.811 57 L 71.833 44.500 71.916 38.250 C 71.962 34.813, 71.662 32.026, 71.250 32.058 C 70.838 32.090, 63.863 38.053, 55.752 45.308 M 68.280 50.129 L 53.061 63.500 53.240 70.690 L 53.419 77.879 48.709 82.025 C 44.075 86.104, 44 86.266, 44 92.205 L 44 98.241 48.738 94.370 C 51.344 92.242, 55.957 88.186, 58.988 85.358 C 62.020 82.531, 66.862 78.358, 69.750 76.085 L 75 71.953 75 65.977 C 75 62.690, 74.724 60, 74.386 60 C 74.048 60, 71.010 62.309, 67.636 65.132 C 62.028 69.822, 61.887 69.886, 66 65.882 C 68.475 63.472, 73.560 58.727, 77.300 55.337 L 84.100 49.173 83.800 42.966 L 83.500 36.758 68.280 50.129 M 75.846 72.327 C 70.553 76.906, 63.922 82.831, 61.111 85.492 C 56.092 90.244, 56 90.437, 56 96.208 L 56 102.085 65.250 94.218 C 70.338 89.891, 75.850 85.184, 77.500 83.758 C 79.150 82.332, 81.816 80.071, 83.425 78.733 C 85.947 76.637, 86.412 75.454, 86.795 70.151 C 87.040 66.768, 86.842 64, 86.355 64 C 85.869 64, 81.139 67.747, 75.846 72.327 M 56.405 74.250 L 54.500 76.500 56.750 74.595 C 57.987 73.547, 59 72.535, 59 72.345 C 59 71.545, 58.195 72.136, 56.405 74.250" stroke="none" fill="#0e0d0d" fill-rule="evenodd"/><path d="M 18.324 5.522 C 12.571 8.970, 9.565 14.119, 9.598 20.465 C 9.628 26.371, 11.250 29.787, 17.504 37.113 C 25.007 45.903, 27.510 52.041, 27.447 61.500 C 27.379 71.732, 24.828 78.395, 17.643 87.106 C 10.611 95.631, 9.732 97.431, 9.644 103.483 C 9.496 113.748, 17.458 121, 28.878 121 C 36.413 121, 40.805 118.969, 48.672 111.844 C 55.734 105.449, 63.369 101.901, 71.466 101.251 C 79.100 100.638, 83.560 101.998, 89.794 106.839 C 93.772 109.927, 95.274 110.493, 99.500 110.496 C 105.812 110.501, 110.001 107.695, 113.033 101.432 C 116.357 94.565, 115.512 88.017, 110.293 80.201 C 101.764 67.429, 102.105 55.961, 111.425 42.112 C 114.389 37.707, 114.996 35.919, 114.978 31.650 C 114.908 15.206, 99.782 7.737, 88.271 18.462 C 84.556 21.923, 78.883 23.321, 70.857 22.753 C 62.532 22.163, 56.579 19.352, 49.168 12.509 C 41.257 5.205, 36.522 2.998, 28.790 3.009 C 23.869 3.017, 21.591 3.564, 18.324 5.522 M 58.173 31.424 C 45.034 35.707, 36.611 47.637, 36.585 62 C 36.574 67.998, 37.094 70.631, 39.183 75.148 C 40.620 78.254, 42.725 81.725, 43.861 82.861 C 45.006 84.006, 45.498 85.192, 44.964 85.523 C 44.434 85.850, 44 88.846, 44 92.179 L 44 98.241 48.418 94.620 C 50.848 92.629, 53.323 91, 53.918 91 C 54.513 91, 54.888 90.458, 54.750 89.795 C 54.613 89.133, 54.950 88.564, 55.500 88.531 C 56.050 88.499, 58.702 86.228, 61.393 83.486 C 64.084 80.744, 65.775 79.216, 65.151 80.092 C 64.528 80.968, 64.351 82.052, 64.759 82.502 C 65.166 82.952, 64.972 83.018, 64.327 82.649 C 63.640 82.255, 61.670 83.786, 59.577 86.341 C 56.392 90.227, 56 91.339, 56 96.475 L 56 102.244 62.750 96.381 C 66.463 93.156, 68.825 91.376, 68 92.424 C 66.557 94.258, 66.683 94.306, 71.341 93.672 C 81.736 92.258, 89.560 86.587, 94.735 76.717 C 97.153 72.106, 97.472 70.397, 97.485 62 C 97.502 51.083, 95.417 45.417, 89.035 39.035 C 81.492 31.492, 68.096 28.189, 58.173 31.424 M 51.405 79.155 C 50.962 79.870, 51.130 80.038, 51.845 79.595 C 52.480 79.203, 53 78.684, 53 78.441 C 53 77.607, 52.117 78.002, 51.405 79.155 M 76.405 84.155 C 75.962 84.870, 76.130 85.038, 76.845 84.595 C 77.998 83.883, 78.393 83, 77.559 83 C 77.316 83, 76.797 83.520, 76.405 84.155" stroke="none" fill="#dc340c" fill-rule="evenodd"/></svg>